# xmcd
#
# Track frame offsets:
#	150
#	17476
#	31263
#	51512
#	70137
#	88636
#	110928
#	125862
#	142116
#	160925
#	176578
#
# Disc length: 2651 seconds
#
# Revision: 0
# Processed by: cddbd v1.5.1PL0 Copyright (c) Steve Scherf et al.
# Submitted via: dBpowerAMP V4.0
#
DISCID=a00a590b
DTITLE=Sons Of The Desert - Whatever Comes First
DYEAR=2000
DGENRE=Country
TTITLE0=Hand Of Fate
TTITLE1=Whatever Comes First
TTITLE2=Leaving October
TTITLE3=Bring On The Angel
TTITLE4=You Can Come Cryin' To Me
TTITLE5=Colorado
TTITLE6=When It's Right
TTITLE7=Promises
TTITLE8=Drive Away
TTITLE9=Devil on both shoulders
TTITLE10=Burned In My Mind
EXTD=
EXTT0=
EXTT1=
EXTT2=
EXTT3=
EXTT4=
EXTT5=
EXTT6=
EXTT7=
EXTT8=
EXTT9=
EXTT10=
PLAYORDER=
